<?xml version="1.0" standalone="no"?>
<!DOCTYPE svg PUBLIC "-//W3C//DTD SVG 20010904//EN"
 "http://www.w3.org/TR/2001/REC-SVG-20010904/DTD/svg10.dtd">
<svg version="1.0" xmlns="http://www.w3.org/2000/svg"
 width="895.000000pt" height="896.000000pt" viewBox="0 0 895.000000 896.000000"
 preserveAspectRatio="xMidYMid meet">

<g transform="translate(0.000000,896.000000) scale(0.100000,-0.100000)"
fill="#000000" stroke="none">
<path d="M1934 7870 c-110 -22 -225 -113 -277 -219 l-32 -66 -5 -3020 -5
-3020 -187 -3 -188 -2 0 -230 0 -230 2085 0 2085 0 0 230 0 230 -160 0 -160 0
0 865 0 865 -250 0 -250 0 0 -865 0 -865 -1235 0 -1235 0 0 2920 0 2920 1235
0 1235 0 0 -405 0 -405 250 0 251 0 -3 498 c-3 447 -5 502 -21 542 -43 110
-130 199 -240 244 l-52 21 -1400 1 c-770 1 -1419 -2 -1441 -6z"/>
<path d="M5520 7622 l0 -260 158 -83 c298 -156 443 -257 607 -423 179 -181
302 -381 400 -651 133 -369 189 -659 220 -1140 38 -610 90 -1018 226 -1760 85
-467 86 -479 65 -586 -26 -128 -75 -220 -165 -310 -121 -121 -243 -172 -411
-172 -273 1 -483 151 -566 406 -25 77 -28 96 -32 305 l-4 222 -249 0 -249 0 0
-182 c0 -289 24 -433 99 -607 178 -415 625 -661 1108 -611 386 40 678 227 828
533 81 167 115 326 115 545 0 152 -10 237 -55 482 -134 725 -204 1284 -260
2090 -8 118 -15 225 -15 236 0 17 28 37 143 99 78 43 161 89 184 102 l42 24
-36 102 c-163 467 -511 930 -981 1306 -348 280 -803 513 -1139 586 l-33 7 0
-260z"/>
<path d="M5650 6528 l-25 -14 -5 -273 -5 -273 -40 32 c-22 18 -68 46 -102 62
-59 28 -69 30 -160 26 -80 -2 -108 -8 -153 -29 -107 -51 -185 -157 -226 -309
-24 -89 -25 -326 -1 -423 24 -95 67 -175 124 -229 59 -54 89 -71 162 -88 132
-31 269 9 385 112 l56 50 0 -66 c0 -81 8 -86 119 -86 59 0 84 4 95 16 14 14
16 95 16 743 0 665 -1 730 -17 742 -23 19 -190 24 -223 7z m-182 -678 c23 -11
67 -44 97 -74 l55 -55 0 -169 0 -170 -46 -51 c-88 -98 -189 -130 -272 -87
-118 61 -159 341 -75 514 47 100 144 136 241 92z"/>
<path d="M3972 6423 c-13 -12 -97 -240 -245 -668 -124 -357 -228 -662 -232
-676 -12 -47 14 -59 120 -59 143 0 136 -6 193 172 l48 153 271 3 271 2 52
-155 c35 -104 58 -159 70 -165 10 -6 70 -10 132 -10 118 0 138 6 138 42 0 10
-103 316 -230 681 -163 470 -236 667 -251 680 -18 14 -43 17 -169 17 -126 0
-151 -3 -168 -17z m262 -562 c53 -161 95 -295 93 -298 -2 -2 -94 -2 -205 -1
l-200 3 100 304 c55 167 103 299 108 295 4 -5 51 -141 104 -303z"/>
<path d="M4002 4944 l-22 -15 0 -729 0 -729 22 -15 c26 -18 180 -22 222 -6
l26 10 0 739 c0 858 17 761 -132 761 -68 0 -100 -4 -116 -16z"/>
<path d="M2784 4846 c-17 -8 -34 -21 -38 -31 -3 -9 -6 -311 -6 -671 0 -641 0
-654 20 -674 19 -19 33 -20 296 -20 307 0 370 8 483 63 34 17 82 50 106 73
139 134 151 374 26 516 -30 35 -139 98 -168 98 -21 0 -15 16 12 28 52 24 114
93 136 150 17 47 20 73 17 147 -3 79 -8 98 -34 145 -58 103 -166 161 -335 180
-130 15 -477 12 -515 -4z m520 -222 c59 -31 79 -64 84 -138 5 -80 -10 -127
-53 -165 -47 -40 -91 -51 -217 -51 l-108 0 0 191 0 191 128 -3 c104 -3 134 -8
166 -25z m43 -578 c103 -44 151 -169 104 -271 -43 -93 -99 -115 -297 -115
l-144 0 0 206 0 206 148 -4 c111 -3 157 -9 189 -22z"/>
<path d="M6115 4508 c-215 -20 -362 -159 -411 -389 -22 -105 -14 -309 16 -399
73 -216 250 -313 540 -297 113 7 244 36 294 65 30 18 31 20 34 98 2 57 -1 84
-10 91 -9 8 -40 3 -108 -19 -113 -35 -251 -47 -328 -28 -104 25 -164 96 -178
212 l-7 57 323 3 322 3 20 25 c19 23 20 35 15 135 -10 219 -93 355 -255 416
-69 25 -173 36 -267 27z m130 -189 c79 -22 135 -111 135 -213 l0 -36 -210 0
-210 0 0 28 c1 40 32 125 60 160 22 26 60 49 110 66 26 8 74 6 115 -5z"/>
<path d="M4590 4491 c-20 -4 -41 -11 -48 -15 -15 -9 -17 -645 -2 -751 13 -91
59 -184 113 -230 26 -23 67 -44 111 -57 138 -42 274 -8 401 101 l60 52 3 -66
c3 -61 5 -67 30 -76 40 -16 181 -7 192 11 6 9 10 218 10 512 l0 497 -22 13
c-14 7 -60 12 -113 12 -53 0 -99 -5 -112 -12 l-23 -13 0 -336 0 -337 -56 -54
c-59 -57 -121 -91 -167 -92 -67 0 -137 56 -157 128 -6 22 -10 170 -10 364 0
312 -1 328 -19 337 -26 14 -147 22 -191 12z"/>
</g>
</svg>
